<?xml version="1.0" encoding="utf-8"?>
<!-- Generator: Adobe Illustrator 25.0.1, SVG Export Plug-In . SVG Version: 6.00 Build 0)  -->
<svg version="1.1" id="Layer_1" xmlns="http://www.w3.org/2000/svg" xmlns:xlink="http://www.w3.org/1999/xlink" x="0px" y="0px"
	 viewBox="0 0 120.1 58.5" style="enable-background:new 0 0 120.1 58.5;" xml:space="preserve">
<style type="text/css">
	.st0{fill:#FFFFFF;}
</style>
<g>
	<path class="st0" d="M36.5,17.3c0,1.6,0,2.8,0.1,3.7h-1.1c-0.8-3.9-2-6.7-3.6-8.4c-1.6-1.7-3.5-2.6-5.5-2.6h-0.6
		c-0.9,0-1.5,0.1-2,0.2c-0.4,0.2-0.7,0.4-0.8,0.9c-0.1,0.4-0.2,1.1-0.2,2.1v13h0.5c1.7,0,3.2-0.7,4.4-2.1c1.2-1.4,2-2.9,2.3-4.6h1.1
		c-0.1,1.4-0.1,3-0.1,4.8v2.4c0,1.7,0.1,4.1,0.3,7.2h-1.1c-0.3-1.9-1.1-3.5-2.3-4.8s-2.8-1.9-4.6-1.9h-0.5v11.7
		c0,1.4,0.1,2.5,0.4,3.1c0.3,0.6,0.8,1.1,1.5,1.3c0.7,0.2,1.9,0.3,3.5,0.3v1.2c-4.5-0.1-7.8-0.2-10.2-0.2c-1.5,0-3.7,0-6.5,0.1
		l-2.4,0.1v-1c1.1-0.1,1.8-0.2,2.3-0.4c0.5-0.2,0.8-0.6,1-1.2c0.2-0.6,0.2-1.5,0.2-2.8V14.2c0-1.3-0.1-2.2-0.3-2.8
		c-0.2-0.6-0.5-1-1-1.2C11,10,10.2,9.9,9.2,9.8v-1C13,8.9,18.7,9,26.5,9c4.8,0,8.3-0.1,10.3-0.2C36.6,12,36.5,14.8,36.5,17.3z"/>
	<path class="st0" d="M71,13.3c3.4,3,5.1,7.3,5.1,13.1c0,3.7-0.8,6.9-2.5,9.7c-1.7,2.8-4.1,4.9-7.2,6.4c-3.1,1.5-6.9,2.3-11.2,2.3
		l-3.1-0.1c-2-0.1-3.4-0.1-4.4-0.1c-3.9,0-6.7,0.1-8.6,0.2v-1c1.1-0.1,1.8-0.2,2.3-0.4c0.5-0.2,0.8-0.6,1-1.2
		c0.2-0.6,0.2-1.5,0.2-2.8V14.2c0-1.3-0.1-2.2-0.3-2.8c-0.2-0.6-0.5-1-1-1.2C41,10,40.3,9.9,39.2,9.8v-1C40.7,8.9,43,9,45.9,9h1.8
		l2.2-0.1c2.8-0.1,4.7-0.1,5.8-0.1C62.5,8.8,67.6,10.3,71,13.3z M54.1,10.1c-0.5,0.2-0.9,0.7-1.1,1.3c-0.2,0.6-0.3,1.5-0.3,2.7v25.4
		c0,1.2,0.1,2.1,0.3,2.7c0.2,0.6,0.6,1,1.1,1.3c0.5,0.2,1.3,0.4,2.3,0.4c3.3,0,5.6-1.4,7.1-4.3c1.5-2.9,2.2-7.2,2.2-12.9
		c0-5.7-0.8-10-2.2-12.7c-1.5-2.8-3.8-4.1-7-4.1C55.4,9.7,54.6,9.9,54.1,10.1z"/>
	<path class="st0" d="M105.3,27.5c2.1,0.9,3.6,2,4.6,3.3c1,1.3,1.4,2.7,1.4,4.1c0,3.3-1.3,5.8-3.9,7.4c-2.6,1.6-6.2,2.4-11,2.4
		c-1,0-1.8,0-2.4-0.1c-2.2-0.1-4.4-0.1-6.6-0.1c-3.9,0-6.7,0.1-8.6,0.2v-1c1.1-0.1,1.8-0.2,2.3-0.4c0.5-0.2,0.8-0.6,1-1.2
		s0.2-1.5,0.2-2.8V14.2c0-1.3-0.1-2.2-0.3-2.8c-0.2-0.6-0.5-1-1-1.2c-0.5-0.2-1.2-0.3-2.3-0.4v-1C80.8,8.9,83.6,9,87.4,9l5.7-0.1
		c0.7,0,1.4-0.1,2.3-0.1c4.4,0,7.7,0.7,10,2.2c2.3,1.4,3.4,3.4,3.4,5.8c0,1.3-0.4,2.5-1.3,3.8c-0.9,1.3-2.1,2.4-3.9,3.3
		c-1.7,0.9-3.8,1.6-6.3,1.9v0.1C100.6,26.1,103.2,26.6,105.3,27.5z M93.4,10.2c-0.4,0.2-0.6,0.7-0.8,1.3s-0.2,1.5-0.2,2.7v11.5h1.3
		c1.8,0,3-0.8,3.7-2.3s1.1-3.5,1.1-6c0-2.6-0.3-4.5-0.8-5.7c-0.5-1.2-1.4-1.9-2.6-1.9C94.3,9.8,93.8,10,93.4,10.2z M100.9,34.7
		c0-2.7-0.6-4.7-1.9-6.1c-1.3-1.4-3.2-2.1-5.9-2.1h-0.7v12.8c0,1.2,0.1,2.1,0.2,2.7s0.5,1,0.9,1.2c0.4,0.2,1.1,0.3,2.1,0.3
		C99.2,43.6,100.9,40.6,100.9,34.7z"/>
</g>
</svg>
