<?xml version="1.0" encoding="UTF-8" standalone="no"?>
<!-- Generator: Adobe Illustrator 25.0.1, SVG Export Plug-In . SVG Version: 6.00 Build 0)  -->

<svg
   version="1.0"
   id="Layer_1"
   x="0px"
   y="0px"
   viewBox="0 0 141 51"
   style="enable-background:new 0 0 141 51;"
   xml:space="preserve"
   sodipodi:docname="logo-smallextra1.svg"
   inkscape:version="1.1 (c68e22c387, 2021-05-23)"
   xmlns:inkscape="http://www.inkscape.org/namespaces/inkscape"
   xmlns:sodipodi="http://sodipodi.sourceforge.net/DTD/sodipodi-0.dtd"
   xmlns="http://www.w3.org/2000/svg"
   xmlns:svg="http://www.w3.org/2000/svg"><defs
   id="defs55" /><sodipodi:namedview
   id="namedview53"
   pagecolor="#ffffff"
   bordercolor="#666666"
   borderopacity="1.0"
   inkscape:pageshadow="2"
   inkscape:pageopacity="0.0"
   inkscape:pagecheckerboard="0"
   showgrid="false"
   inkscape:zoom="7.8156028"
   inkscape:cx="70.563975"
   inkscape:cy="25.461887"
   inkscape:window-width="1368"
   inkscape:window-height="842"
   inkscape:window-x="-6"
   inkscape:window-y="-6"
   inkscape:window-maximized="1"
   inkscape:current-layer="Layer_1" />
<style
   type="text/css"
   id="style2">
	.st0{fill:#C12227;stroke:#000000;stroke-width:1.4671;stroke-miterlimit:10;}
</style>
<g
   id="g50"
   transform="matrix(1.1291788,0,0,1.1076959,-9.0559524,-2.7462451)">
	<g
   id="g48">
		<g
   id="g14">
			<path
   d="m 58.3,15 h -2 c -1,0 -1.2,-0.2 -1.3,-0.5 l -0.2,-0.8 h -4 l -0.5,0.8 C 50,14.8 49.8,15 48.8,15 H 47 c -0.5,0 -0.7,-0.2 -0.3,-0.5 l 5.6,-7.3 c 0.2,-0.3 0.5,-0.3 1,-0.3 h 2 c 0.5,0 0.8,0 0.8,0.3 l 2.8,7.3 c 0,0.3 -0.1,0.5 -0.6,0.5 z M 53.8,9 h -0.2 c 0,0 -0.2,0.8 -0.7,1.7 L 52,12 h 2.3 L 54,10.7 C 53.6,9.9 53.8,9 53.8,9 Z"
   id="path4" />
			<path
   d="m 71.2,9.7 c -0.2,1.2 -1.2,2 -2.5,2.3 0.2,0.2 0.3,0.3 0.3,0.5 l 1.3,2 c 0.2,0.3 0,0.5 -0.7,0.5 h -2 c -1,0 -1.3,-0.2 -1.5,-0.5 L 65.4,13 c -0.2,-0.3 -0.5,-0.7 -1.3,-0.7 h -0.5 l -0.5,2.2 c 0,0.3 -0.3,0.5 -0.8,0.5 h -2 c -0.7,0 -0.8,-0.2 -0.7,-0.5 l 1.3,-7.1 c 0,-0.3 0.3,-0.5 0.8,-0.5 h 5.1 c 3.2,0 4.9,1 4.4,2.8 z M 66.5,8.9 h -2 l -0.3,1.5 h 2 c 0.8,0 1.3,-0.3 1.3,-0.8 0.2,-0.4 -0.3,-0.7 -1,-0.7 z"
   id="path6" />
			<path
   d="m 81.9,15 h -2 c -1,0 -1.3,0 -1.5,-0.5 l -1.2,-2 C 77,12.2 76.7,12 76,12 h -0.3 l -0.5,2.6 c 0,0.3 -0.3,0.5 -0.8,0.5 h -2 c -0.7,0 -0.8,-0.2 -0.7,-0.5 L 73,7.5 C 73.2,7.2 73.5,7 74,7 h 2 c 0.7,0 0.7,0.2 0.7,0.5 l -0.3,2.3 h 0.3 l 3.1,-2.6 c 0.3,-0.3 0.7,-0.5 1.5,-0.5 h 2.2 c 0.5,0 0.7,0.2 0.3,0.5 l -4,3.3 c 0.3,0.2 0.7,0.5 1,0.8 l 1.8,2.8 c 0.2,0.7 0,0.9 -0.7,0.9 z"
   id="path8" />
			<path
   d="m 85.9,6.9 h 2.2 c 0.5,0 0.7,0.2 0.7,0.5 l -1.3,7.3 c 0,0.3 -0.3,0.5 -0.8,0.5 H 84.5 C 84,15.2 83.8,15 83.8,14.7 l 1.3,-7.3 c 0,-0.4 0.3,-0.5 0.8,-0.5 z"
   id="path10" />
			<path
   d="m 101.3,7.4 -1.3,7.1 c 0,0.3 -0.3,0.5 -0.8,0.5 h -2 c -0.3,0 -0.5,0 -0.7,-0.2 L 94.2,12.2 C 93.5,11.4 93.4,10.9 93,9.9 h -0.2 c 0.2,1.2 0.3,1.7 0,3 l -0.3,1.8 c 0,0.3 -0.3,0.5 -0.8,0.5 h -1.8 c -0.7,0 -0.8,-0.2 -0.7,-0.5 l 1.3,-7.1 c 0,-0.3 0.3,-0.5 0.8,-0.5 h 2.2 c 0.5,0 0.7,0 0.7,0.2 l 2.5,3 c 0.7,0.8 0.7,1.2 1.2,2.2 v 0 C 97.6,11.3 97.4,10.8 97.6,9.7 l 0.3,-1.8 c 0,-0.3 0.3,-0.5 0.8,-0.5 h 1.8 c 0.8,-0.5 1,-0.4 0.8,0 z"
   id="path12" />
		</g>
		<g
   id="g22">
			<path
   d="m 73.3,28.7 h -2 c -1,0 -1.2,-0.2 -1.3,-0.5 l -0.2,-0.8 h -4 l -0.5,0.8 c -0.3,0.3 -0.5,0.5 -1.5,0.5 H 62 c -0.5,0 -0.7,-0.2 -0.3,-0.5 l 5.6,-7.3 c 0.2,-0.3 0.5,-0.3 1,-0.3 h 2 c 0.5,0 0.8,0 0.8,0.3 l 2.8,7.3 c 0.3,0.4 0.1,0.5 -0.6,0.5 z m -4.4,-6.1 h -0.2 c 0,0 -0.2,0.8 -0.7,1.7 l -1,1.3 h 2.3 L 69,24.3 c -0.1,-0.9 -0.1,-1.7 -0.1,-1.7 z"
   id="path16" />
			<path
   d="m 91.2,21.1 -4.3,7.3 c -0.2,0.3 -0.5,0.3 -1,0.3 h -2.2 c -0.5,0 -0.8,0 -0.8,-0.3 l -0.5,-2.6 c -0.2,-0.7 0,-1.5 0,-2 h -0.2 c -0.2,0.7 -0.3,1.3 -0.8,2 L 80,28.4 c -0.2,0.3 -0.5,0.3 -1,0.3 h -2.2 c -0.5,0 -0.8,0 -0.8,-0.3 l -1.3,-7.3 c 0,-0.3 0,-0.5 0.7,-0.5 h 2.2 c 0.7,0 0.8,0 1,0.5 l 0.2,3 c 0,0.7 0,1.7 -0.2,2 h 0.2 c 0,-0.3 0.3,-1.5 0.7,-2 l 1.7,-3 c 0.2,-0.3 0.5,-0.5 1.2,-0.5 h 2 c 0.5,0 0.8,0 1,0.5 l 0.5,3 c 0.2,0.7 0,1.7 0,2 h 0.2 c 0,-0.3 0.3,-1.3 0.7,-2 l 1.3,-3 c 0.2,-0.3 0.5,-0.5 1.2,-0.5 h 2 c 0.1,0 0.1,0.2 -0.1,0.5 z"
   id="path18" />
			<path
   d="m 103.1,21.1 -1.3,7.1 c 0,0.3 -0.3,0.5 -0.8,0.5 h -2 c -0.3,0 -0.5,0 -0.7,-0.2 L 95.8,25.7 C 95.1,24.9 95,24.4 94.6,23.4 h -0.2 c 0.2,1.2 0.3,1.7 0,3 l -0.3,1.8 c 0,0.3 -0.3,0.5 -0.8,0.5 h -1.8 c -0.7,0 -0.8,-0.2 -0.7,-0.5 l 1.3,-7.1 c 0,-0.3 0.3,-0.5 0.8,-0.5 h 2.2 c 0.5,0 0.7,0 0.7,0.2 l 2.5,3 C 99,24.6 99,25 99.5,26 h 0.2 c -0.3,-1.2 -0.5,-1.7 -0.3,-2.8 l 0.3,-1.8 c 0,-0.3 0.3,-0.5 0.8,-0.5 h 1.8 c 0.8,-0.3 1,-0.1 0.8,0.2 z"
   id="path20" />
		</g>
		<g
   id="g30">
			<path
   d="m 92.5,43 h -2 c -1,0 -1.2,-0.2 -1.3,-0.5 l -0.3,-0.8 h -4 l -0.3,0.8 C 84.3,42.8 84.1,43 83.1,43 H 81.3 C 80.8,43 80.6,42.8 81,42.5 l 5.6,-7.3 c 0.2,-0.3 0.5,-0.3 1,-0.3 h 2 c 0.5,0 0.8,0 0.8,0.3 l 2.8,7.3 c 0,0.3 -0.2,0.5 -0.7,0.5 z m -4.4,-6.2 h -0.2 c 0,0 -0.2,0.8 -0.7,1.7 l -1,1.3 h 2.3 l -0.3,-1.3 c -0.3,-0.8 -0.1,-1.7 -0.1,-1.7 z"
   id="path24" />
			<path
   d="m 105.6,37.5 c -0.2,1.2 -1.2,2 -2.5,2.3 0.2,0.2 0.3,0.3 0.3,0.5 l 1.3,2 c 0.2,0.3 0,0.5 -0.7,0.5 h -2 c -1,0 -1.3,-0.2 -1.5,-0.5 L 99.7,40.8 C 99.5,40.5 99.2,40.1 98.4,40.1 H 98 l -0.5,2.2 c 0,0.3 -0.3,0.5 -0.8,0.5 h -2 C 94,42.8 93.9,42.6 94,42.3 l 1.3,-7.1 c 0,-0.3 0.3,-0.5 0.8,-0.5 h 5.1 c 3.1,0 4.7,1 4.4,2.8 z m -4.8,-0.7 h -2 l -0.3,1.5 h 2 c 0.8,0 1.3,-0.3 1.3,-0.8 0.2,-0.5 -0.2,-0.7 -1,-0.7 z"
   id="path26" />
			<path
   d="m 116.7,35.2 -0.2,1 c 0,0.3 -0.3,0.5 -0.8,0.5 h -4.8 l -0.2,1 h 3.6 c 0.7,0 0.8,0.2 0.7,0.5 l -0.2,1 c 0,0.3 -0.3,0.5 -0.8,0.5 h -3.8 l -0.2,1.2 h 5 c 0.5,0 0.7,0.2 0.7,0.5 l -0.2,1 c 0,0.3 -0.3,0.5 -0.8,0.5 h -7.8 c -0.7,0 -0.8,-0.2 -0.7,-0.5 l 1.3,-7.1 c 0,-0.3 0.3,-0.5 0.8,-0.5 h 7.6 c 0.6,-0.1 0.8,0 0.8,0.4 z"
   id="path28" />
		</g>
		<g
   id="g36">
			<g
   id="g34">
				<path
   class="st0"
   d="m 70,29.7 c 5.5,0 8.6,1.5 9.6,4 0.2,0.7 -0.2,1 -1.2,1.2 l -4,0.8 c -1.2,0.2 -1.5,0.2 -1.8,-0.7 -0.5,-1 -1.5,-1.5 -3.5,-1.5 -2.8,0 -4.1,0.8 -4.3,2.3 L 64.1,40 c -0.3,1.5 0.7,2.3 3.5,2.3 2,0 3.1,-0.5 4,-1.5 0.5,-0.7 1,-0.8 2,-0.7 l 3.6,0.8 c 1,0.2 1.2,0.5 0.7,1.2 -2,2.5 -5.6,4 -11.1,4 -7,0 -10.4,-2.5 -9.8,-6.3 l 0.8,-4 c 0.8,-3.6 5.3,-6.1 12.2,-6.1 z"
   id="path32" />
			</g>
		</g>
		<g
   id="g42">
			<g
   id="g40">
				<path
   class="st0"
   d="m 51.3,17.1 -2.2,11.1 h 8.6 c 1.2,0 1.5,0.2 1.3,1 l -0.3,2 c -0.2,0.7 -0.5,1 -1.7,1 H 43.1 c -1.2,0 -1.5,-0.2 -1.3,-1 l 2.6,-14.1 c 0.2,-0.7 0.5,-1 1.7,-1 h 4 c 1.1,0.2 1.4,0.4 1.2,1 z"
   id="path38" />
			</g>
		</g>
		<g
   id="g46">
			<path
   class="st0"
   d="m 46.5,10.7 c -0.7,3.5 -4.6,5.5 -10.1,5.5 H 32.1 L 31.3,20 c -0.2,0.7 -0.5,1 -1.7,1 h -4 c -1.2,0 -1.5,-0.2 -1.3,-1 L 27,5.9 c 0.2,-0.7 0.5,-1 1.7,-1 h 9.8 c 5.5,0.2 8.7,2.1 8,5.8 z m -7.3,0 C 39.4,9.7 38.5,9 36.9,9 h -3.5 l -0.7,3.3 h 3.5 c 1.7,-0.1 2.9,-0.6 3,-1.6 z"
   id="path44" />
		</g>
	</g>
</g>
</svg>
